<svg width="24" height="25" viewBox="0 0 24 25" fill="none" xmlns="http://www.w3.org/2000/svg">
<path d="M14.2461 16.983C14.1281 16.9336 14.0398 16.8426 13.9811 16.71C13.9224 16.5773 13.9154 16.4503 13.9601 16.329C14.0508 16.0763 14.1274 15.823 14.1901 15.569C14.2528 15.315 14.3004 15.0593 14.3331 14.802L15.2121 15.681C15.1788 15.8563 15.1371 16.0263 15.0871 16.191C15.0371 16.3556 14.9804 16.526 14.9171 16.702C14.8724 16.8406 14.7818 16.9353 14.6451 16.986C14.5084 17.0366 14.3754 17.0356 14.2461 16.983ZM11.0021 15.663C10.8801 15.615 10.7908 15.531 10.7341 15.411C10.6774 15.291 10.6714 15.1663 10.7161 15.037C10.8328 14.6276 10.9181 14.209 10.9721 13.781C11.0261 13.353 11.0534 12.926 11.0541 12.5C11.0541 12.3246 11.0521 12.151 11.0481 11.979C11.0441 11.807 11.0218 11.637 10.9811 11.469L12.0541 12.542C12.0501 13.022 12.0168 13.5006 11.9541 13.978C11.8928 14.4553 11.7954 14.9173 11.6621 15.364C11.6168 15.4986 11.5301 15.5943 11.4021 15.651C11.2741 15.7083 11.1408 15.7116 11.0021 15.663ZM7.6941 14.25C7.58943 14.2013 7.51076 14.1246 7.4581 14.02C7.40476 13.914 7.39043 13.8046 7.4151 13.692C7.44843 13.5 7.47976 13.3013 7.5091 13.096C7.5391 12.8906 7.5541 12.692 7.5541 12.5C7.5541 12.308 7.5391 12.1093 7.5091 11.904C7.4791 11.6986 7.44776 11.5 7.4151 11.308C7.3911 11.1946 7.40543 11.0846 7.4581 10.978C7.51076 10.8713 7.58943 10.7953 7.6941 10.75C7.84943 10.6846 7.99443 10.6813 8.1291 10.74C8.26376 10.7986 8.35143 10.912 8.3921 11.08C8.4461 11.3213 8.48676 11.5573 8.5141 11.788C8.54076 12.018 8.5541 12.2553 8.5541 12.5C8.5541 12.7446 8.54076 12.9823 8.5141 13.213C8.48743 13.4436 8.44676 13.679 8.3921 13.919C8.35143 14.087 8.26376 14.2003 8.1291 14.259C7.99443 14.3176 7.84943 14.3146 7.6941 14.25ZM15.5481 13.206L14.5481 12.225C14.5401 11.605 14.4831 10.997 14.3771 10.401C14.2704 9.80563 14.1314 9.22896 13.9601 8.67096C13.9148 8.54963 13.9208 8.42263 13.9781 8.28996C14.0354 8.15663 14.1231 8.06563 14.2411 8.01696C14.3831 7.94829 14.5201 7.94329 14.6521 8.00196C14.7841 8.06129 14.8724 8.15996 14.9171 8.29796C15.1378 8.95996 15.2991 9.64363 15.4011 10.349C15.5031 11.0543 15.5541 11.7713 15.5541 12.5V12.853C15.5541 12.973 15.5521 13.0906 15.5481 13.206ZM12.0001 21.5C10.7574 21.5 9.58877 21.2633 8.4941 20.79C7.39943 20.316 6.4471 19.674 5.6371 18.864C4.82643 18.0533 4.18443 17.1006 3.7111 16.006C3.2371 14.9113 3.0001 13.7426 3.0001 12.5C3.0001 11.428 3.17376 10.42 3.5211 9.47596C3.86843 8.53129 4.35376 7.67196 4.9771 6.89796L2.2471 4.14196C2.1491 4.04463 2.1001 3.92896 2.1001 3.79496C2.1001 3.66096 2.14876 3.54529 2.2461 3.44796C2.3561 3.33796 2.4781 3.28296 2.6121 3.28296C2.7461 3.28296 2.86176 3.33796 2.9591 3.44796L21.4891 21.958C21.5858 22.0553 21.6341 22.171 21.6341 22.305C21.6341 22.439 21.5791 22.561 21.4691 22.671C21.3718 22.7683 21.2561 22.817 21.1221 22.817C20.9881 22.817 20.8661 22.7683 20.7561 22.671L17.6021 19.523C16.8281 20.1463 15.9688 20.6316 15.0241 20.979C14.0794 21.3263 13.0714 21.5 12.0001 21.5ZM12.0001 20.5C12.9294 20.5 13.8054 20.3486 14.6281 20.046C15.4508 19.7433 16.2004 19.3273 16.8771 18.798L5.7021 7.62296C5.17276 8.30029 4.75676 9.04996 4.4541 9.87196C4.15143 10.694 4.0001 11.57 4.0001 12.5C4.0001 14.7166 4.77943 16.6043 6.3381 18.163C7.89676 19.7216 9.7841 20.5006 12.0001 20.5ZM7.8121 4.53496C8.44876 4.17096 9.12043 3.90763 9.8271 3.74496C10.5338 3.58163 11.2581 3.49996 12.0001 3.49996C13.1928 3.49996 14.3394 3.72763 15.4401 4.18296C16.5408 4.63829 17.5154 5.28963 18.3641 6.13696C19.2108 6.98363 19.8618 7.95796 20.3171 9.05996C20.7724 10.1613 21.0001 11.308 21.0001 12.5C21.0001 13.2293 20.9154 13.941 20.7461 14.635C20.5768 15.329 20.3294 15.9943 20.0041 16.631C19.9388 16.7523 19.8368 16.8313 19.6981 16.868C19.5594 16.9046 19.4311 16.8883 19.3131 16.819C19.1951 16.7496 19.1171 16.646 19.0791 16.508C19.0411 16.37 19.0544 16.238 19.1191 16.112C19.4124 15.548 19.6324 14.9606 19.7791 14.35C19.9258 13.7393 19.9994 13.1226 20.0001 12.5C20.0001 10.2666 19.2251 8.37496 17.6751 6.82496C16.1251 5.27496 14.2334 4.49996 12.0001 4.49996C11.3768 4.49996 10.7601 4.57329 10.1501 4.71996C9.5401 4.86663 8.9531 5.08663 8.3891 5.37996C8.2631 5.44596 8.13076 5.46263 7.9921 5.42996C7.85343 5.39729 7.74343 5.32263 7.6621 5.20596C7.58076 5.08929 7.55476 4.96429 7.5841 4.83096C7.6141 4.69896 7.6901 4.60029 7.8121 4.53496Z" fill="white"/>
</svg>
