<svg width="24" height="25" viewBox="0 0 24 25" fill="none" xmlns="http://www.w3.org/2000/svg">
<g clip-path="url(#clip0_20_363)">
<path d="M21.8 17.5V16C21.7219 15.3121 21.3933 14.677 20.8768 14.2159C20.3604 13.7549 19.6923 13.5 19 13.5C18.3077 13.5 17.6396 13.7549 17.1232 14.2159C16.6067 14.677 16.2781 15.3121 16.2 16V17.5C15.8887 17.5211 15.5955 17.6542 15.3749 17.8749C15.1542 18.0955 15.0211 18.3887 15 18.7V22.2C15.0013 22.5275 15.1253 22.8425 15.3474 23.0832C15.5695 23.3238 15.8737 23.4725 16.2 23.5H21.7C22.0275 23.4987 22.3425 23.3747 22.5832 23.1526C22.8238 22.9305 22.9725 22.6263 23 22.3V18.8C22.9987 18.4725 22.8747 18.1575 22.6526 17.9168C22.4305 17.6762 22.1263 17.5275 21.8 17.5ZM17.5 16C17.5093 15.8148 17.556 15.6334 17.6373 15.4667C17.7185 15.3 17.8326 15.1515 17.9727 15.0301C18.1129 14.9086 18.2761 14.8168 18.4526 14.7601C18.6292 14.7033 18.8154 14.6829 19 14.7C19.1846 14.6829 19.3708 14.7033 19.5474 14.7601C19.7239 14.8168 19.8871 14.9086 20.0273 15.0301C20.1674 15.1515 20.2815 15.3 20.3627 15.4667C20.444 15.6334 20.4907 15.8148 20.5 16V17.5H17.5V16Z" fill="white"/>
<path d="M24 11.5V2.5C24 1.96957 23.7893 1.46086 23.4142 1.08579C23.0391 0.710714 22.5304 0.5 22 0.5H2C1.46957 0.5 0.960859 0.710714 0.585786 1.08579C0.210714 1.46086 0 1.96957 0 2.5L0 20.5C0 21.0304 0.210714 21.5391 0.585786 21.9142C0.960859 22.2893 1.46957 22.5 2 22.5H13V20.5H2V2.5H22V11.5" fill="white"/>
<path d="M6 4.5H4V6.5H6V4.5ZM20 4.5H8V6.5H20V4.5ZM13 16.5H8V18.5H13V16.5ZM6 16.5H4V18.5H6V16.5ZM10 8.5H8V10.5H10V8.5ZM20 8.5H12V10.5H20V8.5ZM14.808 12.5H12V14.5H14.2V14C14.2105 13.4421 14.4271 12.9078 14.808 12.5ZM10 12.5H8V14.5H10V12.5Z" fill="white"/>
</g>
<defs>
<clipPath id="clip0_20_363">
<rect width="24" height="24" fill="white" transform="translate(0 0.5)"/>
</clipPath>
</defs>
</svg>
